<?xml version="1.0" encoding="utf-8"?>
<!-- Generator: Adobe Illustrator 17.0.0, SVG Export Plug-In . SVG Version: 6.00 Build 0)  -->
<!DOCTYPE svg PUBLIC "-//W3C//DTD SVG 1.1//EN" "http://www.w3.org/Graphics/SVG/1.1/DTD/svg11.dtd">
<svg version="1.1" id="Layer_1" xmlns="http://www.w3.org/2000/svg" xmlns:xlink="http://www.w3.org/1999/xlink" x="0px" y="0px"
	 width="640px" height="480px" viewBox="0 0 640 480" enable-background="new 0 0 640 480" xml:space="preserve">
<g id="Page-1">
	<g id="LOGO">
		<g id="Group-8" transform="translate(261.000000, 563.000000)">
			<g id="Group-6">
				<polygon id="Triangle-582" fill="#5555DD" points="-99.206,-238.551 10.724,-529.754 -209.135,-529.754 				"/>
				<polygon id="Triangle-582-Copy" fill="#4990E2" points="2.715,-238.551 112.645,-529.754 -107.214,-529.754 				"/>
				<polygon id="Triangle-582-Copy-2" fill="#3160F7" points="-48.245,-373.961 10.724,-529.754 -107.214,-529.754 				"/>
			</g>
			<g id="Group-7" transform="translate(227.000000, 0.000000)">
				<rect id="Rectangle-697" x="-105.619" y="-529.754" fill="#3160F7" width="77.169" height="291.203"/>
			</g>
			<g id="Group-5" transform="translate(29.000000, 180.000000)">
				
					<polyline id="Triangle-582-Copy-3" fill="none" stroke="#4A4A4A" stroke-width="4" stroke-linecap="round" stroke-linejoin="round" points="
					-195.91,-447.671 -152.594,-328.278 -152.594,-328.278 -131.846,-385.467 				"/>
				
					<polyline id="Triangle-582-Copy-4" fill="none" stroke="#4A4A4A" stroke-width="4" stroke-linecap="round" stroke-linejoin="round" points="
					-111.461,-386.519 -111.097,-328.278 -131.846,-385.467 				"/>
				
					<path id="Triangle-582-Copy-5" fill="none" stroke="#4A4A4A" stroke-width="4" stroke-linecap="round" stroke-linejoin="round" d="
					M-102.361-386.519l-0.364,58.241"/>
				
					<path id="Triangle-582-Copy-9" fill="none" stroke="#4A4A4A" stroke-width="4" stroke-linecap="round" stroke-linejoin="round" d="
					M48.7-386.519v58.241"/>
				
					<path id="Triangle-582-Copy-6" fill="none" stroke="#4A4A4A" stroke-width="4" stroke-linecap="round" stroke-linejoin="round" d="
					M-20.824-386.519l-0.364,58.241"/>
				
					<path id="Triangle-582-Copy-10" fill="none" stroke="#4A4A4A" stroke-width="4" stroke-linecap="round" stroke-linejoin="round" d="
					M112.765-354.486v58.241"/>
				
					<path id="Triangle-582-Copy-11" fill="none" stroke="#4A4A4A" stroke-width="4" stroke-linecap="round" stroke-linejoin="round" d="
					M162.269-354.486v26.208"/>
				
					<path id="Triangle-582-Copy-12" fill="none" stroke="#4A4A4A" stroke-width="4" stroke-linecap="round" stroke-linejoin="round" d="
					M179.742-354.486v26.208"/>
				<g id="Group-3" transform="translate(124.000000, 54.000000)">
					
						<path id="Triangle-582-Copy-7" fill="none" stroke="#4A4A4A" stroke-width="4" stroke-linecap="round" stroke-linejoin="round" d="
						M-136.088-408.486l-0.364,26.208"/>
					
						<path id="Triangle-582-Copy-8" fill="none" stroke="#4A4A4A" stroke-width="4" stroke-linecap="round" stroke-linejoin="round" d="
						M-136.452-423.047v5.824"/>
				</g>
				<g id="Group-3-Copy" transform="translate(250.000000, 54.000000)">
					
						<path id="Triangle-582-Copy-7_1_" fill="none" stroke="#4A4A4A" stroke-width="4" stroke-linecap="round" stroke-linejoin="round" d="
						M-78.63-408.486l-0.364,26.208"/>
					
						<path id="Triangle-582-Copy-8_1_" fill="none" stroke="#4A4A4A" stroke-width="4" stroke-linecap="round" stroke-linejoin="round" d="
						M-78.995-423.047v5.824"/>
				</g>
				<path id="Rectangle-698" fill="none" stroke="#4A4A4A" stroke-width="4" stroke-linecap="round" stroke-linejoin="round" d="
					M-102.725-328.255v-20.431l0,0c0-3.204,2.582-5.801,5.841-5.801h8.702c3.226,0,5.841,2.621,5.841,5.801v20.431"/>
				<path id="Rectangle-702" fill="none" stroke="#4A4A4A" stroke-width="4" stroke-linecap="round" stroke-linejoin="round" d="
					M115.671-354.486h11.659c3.213,0,5.819,2.609,5.819,5.816v14.575c0,3.212-2.582,5.816-5.819,5.816h-11.659"/>
				<path id="Rectangle-702_1_" fill="none" stroke="#4A4A4A" stroke-width="4" d="M162.269-334.095
					c0,3.212-2.582,5.816-5.841,5.816h-8.702c-3.226,0-5.841-2.609-5.841-5.816v-14.575l0,0c0-3.212,2.582-5.816,5.841-5.816h8.702
					c3.226,0,5.841,2.609,5.841,5.816"/>
				
					<path id="Rectangle-698-Copy-3" fill="none" stroke="#4A4A4A" stroke-width="4" stroke-linecap="round" stroke-linejoin="round" d="
					M48.7-328.278v-20.413c0-3.201,0.038-5.796,3.764-5.796l25.357,26.208"/>
				
					<path id="Rectangle-698-Copy-4" fill="none" stroke="#4A4A4A" stroke-width="4" stroke-linecap="round" stroke-linejoin="round" d="
					M48.7-386.519h20.413c3.201,0,5.796,4.057,5.796,9.179v13.674c0,5.07-2.619,9.179-5.796,9.179H48.7"/>
				<g id="Group-2" transform="translate(84.000000, 64.000000)">
					<path id="Rectangle-698-Copy" fill="none" stroke="#4A4A4A" stroke-width="4" d="M-157.605-412.67
						c0-3.212,2.602-5.816,5.814-5.816h8.756c3.211,0,4.215,2.057,2.24,4.595l-13.236,17.018c-1.974,2.538-3.574,1.986-3.574-1.221
						V-412.67z"/>
					
						<path id="Rectangle-698-Copy-2" fill="none" stroke="#4A4A4A" stroke-width="4" stroke-linecap="round" stroke-linejoin="round" d="
						M-143.062-392.278h-8.702c-3.226,0-5.841-2.609-5.841-5.816v-14.575"/>
				</g>
				<g id="Group-2-Copy" transform="translate(102.000000, 64.000000)">
					<path id="Rectangle-698-Copy_1_" fill="none" stroke="#4A4A4A" stroke-width="4" d="M-149.397-412.67
						c0-3.212,2.602-5.816,5.814-5.816h8.756c3.211,0,4.215,2.057,2.24,4.595l-13.236,17.018c-1.974,2.538-3.574,1.986-3.574-1.221
						V-412.67z"/>
					
						<path id="Rectangle-698-Copy-2_1_" fill="none" stroke="#4A4A4A" stroke-width="4" stroke-linecap="round" stroke-linejoin="round" d="
						M-134.854-392.278h-8.702c-3.226,0-5.841-2.609-5.841-5.816v-14.575"/>
				</g>
				<g id="Group-2-Copy-2" transform="translate(132.000000, 64.000000)">
					<path id="Rectangle-698-Copy_2_" fill="none" stroke="#4A4A4A" stroke-width="4" d="M-135.716-412.67
						c0-3.212,2.602-5.816,5.814-5.816h8.756c3.211,0,4.215,2.057,2.24,4.595l-13.236,17.018c-1.974,2.538-3.574,1.986-3.574-1.221
						V-412.67z"/>
					
						<path id="Rectangle-698-Copy-2_2_" fill="none" stroke="#4A4A4A" stroke-width="4" stroke-linecap="round" stroke-linejoin="round" d="
						M-121.173-392.278h-8.702c-3.226,0-5.841-2.609-5.841-5.816v-14.575"/>
				</g>
				<g id="Group-2-Copy-3" transform="translate(194.000000, 64.000000)">
					<path id="Rectangle-698-Copy_3_" fill="none" stroke="#4A4A4A" stroke-width="4" d="M-107.443-412.67
						c0-3.212,2.602-5.816,5.814-5.816h8.756c3.211,0,4.215,2.057,2.24,4.595l-13.236,17.018c-1.974,2.538-3.574,1.986-3.574-1.221
						V-412.67z"/>
					
						<path id="Rectangle-698-Copy-2_3_" fill="none" stroke="#4A4A4A" stroke-width="4" stroke-linecap="round" stroke-linejoin="round" d="
						M-92.901-392.278h-8.702c-3.226,0-5.841-2.609-5.841-5.816v-14.575"/>
				</g>
				
					<path id="Rectangle-698-Copy-5" fill="none" stroke="#4A4A4A" stroke-width="4" stroke-linecap="round" stroke-linejoin="round" d="
					M179.742-348.67L179.742-348.67c0-3.212,2.582-5.816,5.841-5.816h8.702c3.226,0,4.242,2.057,2.267,4.595"/>
				<g id="Group-4" transform="translate(276.000000, 64.000000)">
					
						<path id="Rectangle-702_2_" fill="none" stroke="#4A4A4A" stroke-width="4" stroke-linecap="round" stroke-linejoin="round" d="
						M-70.05-407.158v-8.097c0-1.785,2.582-3.231,5.841-3.231h8.702c3.226,0,5.841,1.435,5.841,3.242v1.578"/>
					
						<path id="Rectangle-702-Copy" fill="none" stroke="#4A4A4A" stroke-width="4" stroke-linecap="round" stroke-linejoin="round" d="
						M-49.666-403.607v8.097c0,1.785-2.582,3.231-5.841,3.231h-8.702c-3.226,0-5.841-1.435-5.841-3.242v-1.578"/>
					<path id="Path-754" fill="none" stroke="#4A4A4A" stroke-width="4" stroke-linecap="round" stroke-linejoin="round" d="
						M-70.05-406.838l20.384,2.912"/>
				</g>
			</g>
			<g id="Group-7-Copy" transform="translate(227.000000, 0.000000)">
			</g>
		</g>
		<g id="Rectangle-697_1_" transform="translate(488.000000, 568.000000)">
			<g id="Mask" transform="translate(68.500000, 43.500000) scale(1, -1) translate(-68.500000, -43.500000) ">
				<polygon id="path-1_1_" fill="#4A90E2" points="-105.619,-400.801 93.855,-527.474 -105.581,-527.474 				"/>
			</g>
			<defs>
				<filter id="Adobe_OpacityMaskFilter" filterUnits="userSpaceOnUse" x="-105.619" y="-534.754" width="77.169" height="291.203">
					<feColorMatrix  type="matrix" values="1 0 0 0 0  0 1 0 0 0  0 0 1 0 0  0 0 0 1 0"/>
				</filter>
			</defs>
			<mask maskUnits="userSpaceOnUse" x="-105.619" y="-534.754" width="77.169" height="291.203" id="mask-2_1_">
				<g filter="url(#Adobe_OpacityMaskFilter)">
					<polygon id="path-1_2_" fill="#FFFFFF" points="-105.619,-527.474 93.855,-400.801 -105.581,-400.801 					"/>
				</g>
			</mask>
			<rect x="-105.619" y="-534.754" mask="url(#mask-2_1_)" fill="#5555DD" width="77.169" height="291.203"/>
		</g>
		<g id="Triangle-573-Copy" transform="translate(572.000000, 571.000000)">
			<g id="Mask_1_">
				<ellipse id="path-3_1_" fill="#5555DD" cx="-25.09" cy="-483.154" rx="42.224" ry="42.952"/>
			</g>
			<defs>
				
					<filter id="Adobe_OpacityMaskFilter_1_" filterUnits="userSpaceOnUse" x="-189.619" y="-530.474" width="199.474" height="126.673">
					<feColorMatrix  type="matrix" values="1 0 0 0 0  0 1 0 0 0  0 0 1 0 0  0 0 0 1 0"/>
				</filter>
			</defs>
			<mask maskUnits="userSpaceOnUse" x="-189.619" y="-530.474" width="199.474" height="126.673" id="mask-4_1_">
				<g filter="url(#Adobe_OpacityMaskFilter_1_)">
					<ellipse id="path-3_2_" fill="#FFFFFF" cx="-25.09" cy="-483.154" rx="42.224" ry="42.952"/>
				</g>
			</mask>
			<polygon mask="url(#mask-4_1_)" fill="#3160F7" points="-189.619,-403.801 9.855,-530.474 -189.581,-530.474 			"/>
		</g>
	</g>
</g>
</svg>
